HIERARCHY
ROOT Hips
{
  OFFSET 54.9527 91.3929 37.2643
  CHANNELS 6 Xposition Yposition Zposition Zrotation Xrotation Yrotation
  JOINT spine
  {
    OFFSET 0 6.84637 0.3937
    CHANNELS 3 Zrotation Xrotation Yrotation
    JOINT spine1
    {
      OFFSET 0 9.49621 0
      CHANNELS 3 Zrotation Xrotation Yrotation
      JOINT spine2
      {
        OFFSET 0 9.09909 0
        CHANNELS 3 Zrotation Xrotation Yrotation
        JOINT Neck
        {
          OFFSET 0 23.3612 1.11378
          CHANNELS 3 Zrotation Xrotation Yrotation
          JOINT Head
          {
            OFFSET 0 7.05802 0
            CHANNELS 3 Zrotation Xrotation Yrotation
            End Site
            {
              OFFSET 0 17.0844 -5.63419
            }
          }
        }
        JOINT RightShoulder
        {
          OFFSET -3.83136 9.82631 -0.533491
          CHANNELS 3 Zrotation Xrotation Yrotation
          JOINT RightArm
          {
            OFFSET 0 12.8881 0
            CHANNELS 3 Zrotation Xrotation Yrotation
            JOINT RightArmRoll
            {
              OFFSET 0 6.50617 0
              CHANNELS 3 Zrotation Xrotation Yrotation
              JOINT RightForeArm
              {
                OFFSET 0 18.9501 0
                CHANNELS 3 Zrotation Xrotation Yrotation
                JOINT RightForeArmRoll
                {
                  OFFSET 0 7.30093 0
                  CHANNELS 3 Zrotation Xrotation Yrotation
                  JOINT RightHand
                  {
                    OFFSET 0 14.6514 0
                    CHANNELS 3 Zrotation Xrotation Yrotation
                    End Site
                    {
                      OFFSET 0 0 0
                    }
                  }
                }
              }
            }
          }
        }
        JOINT LeftShoulder
        {
          OFFSET 3.83136 9.82631 -0.533491
          CHANNELS 3 Zrotation Xrotation Yrotation
          JOINT LeftArm
          {
            OFFSET 0 12.8881 0
            CHANNELS 3 Zrotation Xrotation Yrotation
            JOINT LeftArmRoll
            {
              OFFSET 0 6.50617 0
              CHANNELS 3 Zrotation Xrotation Yrotation
              JOINT LeftForeArm
              {
                OFFSET 0 18.9501 0
                CHANNELS 3 Zrotation Xrotation Yrotation
                JOINT LeftForeArmRoll
                {
                  OFFSET 0 7.30092 0
                  CHANNELS 3 Zrotation Xrotation Yrotation
                  JOINT LeftHand
                  {
                    OFFSET 0 14.6514 0
                    CHANNELS 3 Zrotation Xrotation Yrotation
                    End Site
                    {
                      OFFSET 0 0 0
                    }
                  }
                }
              }
            }
          }
        }
      }
    }
  }
  JOINT RightUpLeg
  {
    OFFSET -6.06837 -1.11278 -0.933477
    CHANNELS 3 Zrotation Xrotation Yrotation
    JOINT RightUpLegRoll
    {
      OFFSET 0 17.1796 0
      CHANNELS 3 Zrotation Xrotation Yrotation
      JOINT RightLeg
      {
        OFFSET 0 -21.2743 0
        CHANNELS 3 Zrotation Xrotation Yrotation
        JOINT RightLegRoll
        {
          OFFSET 0 21.3439 0
          CHANNELS 3 Zrotation Xrotation Yrotation
          JOINT RightFoot
          {
            OFFSET 0 17.7652 0
            CHANNELS 3 Zrotation Xrotation Yrotation
            JOINT RightToeBase
            {
              OFFSET 0 14.8508 0
              CHANNELS 3 Zrotation Xrotation Yrotation
              End Site
              {
                OFFSET 0.0062947 7.19213 -0.829005
              }
            }
          }
        }
      }
    }
  }
  JOINT LeftUpLeg
  {
    OFFSET 6.06837 -1.11278 -0.933477
    CHANNELS 3 Zrotation Xrotation Yrotation
    JOINT LeftUpLegRoll
    {
      OFFSET 0 17.1797 0
      CHANNELS 3 Zrotation Xrotation Yrotation
      JOINT LeftLeg
      {
        OFFSET 0 21.2742 0
        CHANNELS 3 Zrotation Xrotation Yrotation
        JOINT LeftLegRoll
        {
          OFFSET 0 21.5412 0
          CHANNELS 3 Zrotation Xrotation Yrotation
          JOINT LeftFoot
          {
            OFFSET 0 17.5679 0
            CHANNELS 3 Zrotation Xrotation Yrotation
            JOINT LeftToeBase
            {
              OFFSET 0 14.8508 0
              CHANNELS 3 Zrotation Xrotation Yrotation
              End Site
              {
                OFFSET -0.0282102 7.19214 -0.829005
              }
            }
          }
        }
      }
    }
  }
}
MOTION
Frames: 9
Frame Time: 0.00208333
53.1516 76.6561 6.97909 -2.15168 37.2473 -2.71 0.494 0.871597 0.593935 0.977206 5.75067 1.11678 0.965704 7.39547 1.10195 -3.25968 -5.72232 -0.957337 4.26566 2.43203 -1.12967 53.7341 1.25801 1.54326 115.61 43.4216 -47.8234 -1.36831e-005 -6.54527e-007 -1.1242e-005 27.4181 26.8586 -4.56028 -6.01259e-006 -7.92504e-006 -3.0104 8.0289 -4.95086 0.697417 -45.5563 -1.15027 -0.918742 -138.69 50.0253 25.9565 -5.62426e-007 1.25896e-006 2.36734e-006 -20.4076 0.14944 2.55078 2.03607e-006 4.61283e-007 3.23676 -8.02934 -4.95156 -0.69778 -146.758 86.3963 -35.2693 180 3.05168e-005 179.596 175.783 47.5263 -179.762 -4.37229e-006 4.08516e-006 0.840855 -18.1289 66.8568 18.6258 8.13649 25.2326 -3.48773 -97.9 74.5202 -80.3552 4.54188e-006 -4.6773e-006 -0.267917 -10.5969 -53.8217 -3.4494 2.95271e-007 -4.4808e-006 -0.713743 20.1202 69.2512 -20.655 -8.13649 25.2327 3.48774 
53.164 76.7955 7.06947 -2.13914 37.1669 -2.72593 0.497179 0.879189 0.590131 0.983629 5.76585 1.10865 0.972242 7.41065 1.09371 -3.32011 -5.68024 -0.95883 4.34079 2.41923 -1.13501 53.813 1.29052 1.5533 115.755 43.5117 -47.5256 -1.36831e-005 -6.54527e-007 -1.1242e-005 27.47 26.3803 -4.47523 -6.01259e-006 -7.92504e-006 -3.0104 8.0289 -4.95086 0.697417 -45.7546 -1.07611 -0.951528 -138.671 50.1122 25.5282 -5.62426e-007 1.25896e-006 2.36734e-006 -19.971 0.146363 2.56045 2.03607e-006 4.61283e-007 3.23966 -8.02934 -4.95156 -0.69778 -149.169 86.0906 -32.9 180 3.05168e-005 179.596 175.847 47.241 -179.794 -4.37229e-006 4.08516e-006 0.834307 -18.1138 66.8429 18.6153 8.13649 25.2326 -3.48773 -99.1943 74.5113 -79.0101 4.54188e-006 -4.6773e-006 -0.269472 -10.5473 -53.5469 -3.4069 2.95271e-007 -4.4808e-006 -0.707488 20.1258 69.2612 -20.6646 -8.13649 25.2327 3.48774 
53.1756 76.9306 7.14862 -2.12656 37.0877 -2.74089 0.49983 0.886019 0.586384 0.988999 5.7795 1.10072 0.977723 7.42431 1.08567 -3.3639 -5.64151 -0.960155 4.39894 2.41036 -1.13905 53.8971 1.32636 1.56472 115.884 43.5969 -47.2219 -1.36831e-005 -6.54527e-007 -1.1242e-005 27.5174 25.9109 -4.39115 -6.01259e-006 -7.92504e-006 -3.0104 8.0289 -4.95086 0.697417 -45.9464 -1.00104 -0.985403 -138.657 50.1971 25.1049 -5.62426e-007 1.25896e-006 2.36734e-006 -19.5377 0.143303 2.56887 2.03607e-006 4.61283e-007 3.24256 -8.02934 -4.95156 -0.69778 -151.26 85.782 -30.8497 180 3.05168e-005 179.597 175.908 46.955 -179.824 -4.37229e-006 4.08516e-006 0.827736 -18.0986 66.8287 18.6047 8.13649 25.2326 -3.48773 -100.476 74.4948 -77.6782 4.54188e-006 -4.6773e-006 -0.271038 -10.4981 -53.2767 -3.36536 2.95271e-007 -4.48079e-006 -0.701411 20.1307 69.2706 -20.6735 -8.13649 25.2327 3.48774 
53.1871 77.0733 7.24057 -2.11385 37.01 -2.75475 0.501862 0.891989 0.582708 0.993132 5.79143 1.09302 0.98196 7.43623 1.0779 -3.38861 -5.60651 -0.961264 4.43764 2.40584 -1.14158 53.9872 1.36616 1.57786 115.995 43.6765 -46.9116 -1.36831e-005 -6.54527e-007 -1.1242e-005 27.5597 25.4523 -4.30823 -6.01259e-006 -7.92504e-006 -3.0104 8.0289 -4.95086 0.697417 -46.1302 -0.925168 -1.02044 -138.647 50.2799 24.6874 -5.62426e-007 1.25896e-006 2.36734e-006 -19.1083 0.140265 2.57674 2.03607e-006 4.61283e-007 3.24551 -8.02934 -4.95156 -0.69778 -153.097 85.4721 -29.0529 180 3.05168e-005 179.597 175.965 46.6683 -179.852 -4.37229e-006 4.08516e-006 0.821141 -18.083 66.8143 18.5939 8.13649 25.2326 -3.48773 -101.742 74.4711 -76.3633 4.54188e-006 -4.6773e-006 -0.27261 -10.4494 -53.0118 -3.32486 2.95271e-007 -4.48079e-006 -0.695527 20.1352 69.2795 -20.6818 -8.13649 25.2327 3.48774 
53.2016 77.2136 7.32816 -2.10127 36.934 -2.76719 0.503297 0.897017 0.579031 0.996074 5.80145 1.08541 0.985003 7.44626 1.07022 -3.39548 -5.57375 -0.9619 4.45949 2.40487 -1.14235 54.0848 1.40951 1.59217 116.088 43.7515 -46.5947 -1.36831e-005 -6.54527e-007 -1.1242e-005 27.5982 25.0018 -4.22573 -6.01259e-006 -7.92504e-006 -3.0104 8.0289 -4.95086 0.697417 -46.3072 -0.848052 -1.05694 -138.64 50.3614 24.2766 -5.62426e-007 1.25896e-006 2.36734e-006 -18.6823 0.137245 2.58221 2.03607e-006 4.61283e-007 3.24844 -8.02934 -4.95156 -0.69778 -154.732 85.162 -27.4565 180 3.05168e-005 179.598 176.017 46.3804 -179.878 -4.37229e-006 4.08516e-006 0.814503 -18.0671 66.7996 18.583 8.13649 25.2326 -3.48773 -102.989 74.4411 -75.0669 4.54188e-006 -4.6773e-006 -0.274187 -10.4004 -52.7529 -3.28506 2.95271e-007 -4.48079e-006 -0.689865 20.1391 69.2879 -20.6895 -8.13649 25.2327 3.48774 
53.208 77.3492 7.41555 -2.08905 36.8595 -2.77816 0.504256 0.901153 0.575287 0.998071 5.80966 1.07773 0.987099 7.45447 1.0625 -3.38825 -5.5417 -0.961929 4.46927 2.40639 -1.14146 54.1906 1.45538 1.60686 116.166 43.8238 -46.2721 -1.36831e-005 -6.54527e-007 -1.1242e-005 27.6345 24.5558 -4.14281 -6.01259e-006 -7.92504e-006 -3.0104 8.0289 -4.95086 0.697417 -46.4799 -0.769262 -1.09507 -138.635 50.4429 23.872 -5.62426e-007 1.25896e-006 2.36734e-006 -18.2588 0.134235 2.5831 2.03607e-006 4.61283e-007 3.2513 -8.02934 -4.95156 -0.69778 -156.203 84.8514 -26.022 180 3.05168e-005 179.598 176.065 46.0908 -179.902 -4.37229e-006 4.08516e-006 0.807808 -18.0508 66.7845 18.5717 8.13649 25.2326 -3.48773 -104.22 74.4052 -73.7871 4.54188e-006 -4.6773e-006 -0.27577 -10.3503 -52.4995 -3.24557 2.95271e-007 -4.48079e-006 -0.684428 20.1427 69.2959 -20.6968 -8.13649 25.2327 3.48774 
53.221 77.4974 7.51027 -2.07716 36.786 -2.78786 0.504797 0.904502 0.571495 0.999238 5.81628 1.07 0.988364 7.46109 1.05474 -3.36824 -5.51069 -0.961491 4.46776 2.41043 -1.13916 54.3034 1.50346 1.62189 116.231 43.8934 -45.9441 -1.36831e-005 -6.54527e-007 -1.1242e-005 27.6683 24.1139 -4.05951 -6.01259e-006 -7.92504e-006 -3.0104 8.0289 -4.95086 0.697417 -46.649 -0.688903 -1.13465 -138.629 50.524 23.4728 -5.62426e-007 1.25896e-006 2.36734e-006 -17.8376 0.131235 2.57963 2.03607e-006 4.61283e-007 3.25409 -8.02934 -4.95156 -0.69778 -157.537 84.5404 -24.7233 180 3.05168e-005 179.599 176.108 45.7997 -179.924 -4.37229e-006 4.08516e-006 0.801062 -18.0342 66.769 18.5602 8.13649 25.2326 -3.48773 -105.436 74.3632 -72.5225 4.54188e-006 -4.6773e-006 -0.277361 -10.2996 -52.2506 -3.20643 2.95271e-007 -4.48079e-006 -0.679192 20.1459 69.3035 -20.7037 -8.13649 25.2327 3.48774 
53.2325 77.6325 7.59792 -2.06554 36.7131 -2.79652 0.50498 0.90717 0.567672 0.99969 5.82152 1.06227 0.988912 7.46632 1.04699 -3.33674 -5.48105 -0.960722 4.45574 2.417 -1.13569 54.4222 1.55346 1.63724 116.284 43.9603 -45.6112 -1.36831e-005 -6.54527e-007 -1.1242e-005 27.6997 23.6758 -3.97591 -6.01259e-006 -7.92504e-006 -3.0104 8.0289 -4.95086 0.697417 -46.8149 -0.607081 -1.17549 -138.624 50.6047 23.0781 -5.62426e-007 1.25896e-006 2.36734e-006 -17.4186 0.128243 2.57203 2.03607e-006 4.61283e-007 3.2568 -8.02934 -4.95156 -0.69778 -158.753 84.2287 -23.5407 180 3.05168e-005 179.599 176.149 45.5074 -179.944 -4.37229e-006 4.08516e-006 0.794272 -18.0172 66.7531 18.5484 8.13649 25.2326 -3.48773 -106.639 74.3149 -71.272 4.54188e-006 -4.6773e-006 -0.278965 -10.2484 -52.0054 -3.16766 2.95271e-007 -4.48079e-006 -0.674135 20.1487 69.3106 -20.7101 -8.13649 25.2327 3.48774 
53.2558 77.8005 7.68685 -2.05413 36.6406 -2.80436 0.504861 0.909261 0.563838 0.999543 5.82559 1.05456 0.988859 7.4704 1.03927 -3.29507 -5.4531 -0.959761 4.43397 2.42609 -1.13132 54.5458 1.60506 1.65286 116.328 44.0246 -45.274 -1.36831e-005 -6.54527e-007 -1.1242e-005 27.7285 23.2412 -3.89204 -6.01259e-006 -7.92504e-006 -3.0104 8.0289 -4.95086 0.697417 -46.9783 -0.523899 -1.21743 -138.617 50.6848 22.687 -5.62426e-007 1.25896e-006 2.36734e-006 -17.0016 0.125259 2.56053 2.03607e-006 4.61283e-007 3.25942 -8.02934 -4.95156 -0.69778 -159.869 83.9159 -22.4584 180 3.05168e-005 179.599 176.186 45.2139 -179.962 -4.37229e-006 4.08516e-006 0.787445 -17.9999 66.7369 18.5364 8.13649 25.2326 -3.48773 -107.829 74.2601 -70.0345 4.54188e-006 -4.6773e-006 -0.280586 -10.1971 -51.7632 -3.12929 2.95271e-007 -4.48079e-006 -0.669234 20.1509 69.3173 -20.7159 -8.13649 25.2327 3.48774 
